<svg xmlns="http://www.w3.org/2000/svg" id="svg-definitions">
<symbol id="solidbubble" viewBox="0 0 16 16"><path d="M 14.5 1 c 0.825 0 1.5 0.675 1.5 1.5 v 8 c 0 0.825 -0.675 1.5 -1.5 1.5 h -5.7 l -4.8 4 v -4 h -2.5 c -0.825 0 -1.5 -0.675 -1.5 -1.5 v -8 c 0 -0.825 0.675 -1.5 1.5 -1.5 h 13 Z" /></symbol>
<symbol id="banner" viewBox="0 0 16 16"><path d="M 14 13.5 L 14 8 L 14 4.746 L 14 0 L 0.019119 0.00937684 L 0 13.5 L 7 11 Z" /></symbol>
<symbol id="info" viewBox="0 0 16 16"><path d="M 8 0 c -4.418 0 -8 3.582 -8 8 s 3.582 8 8 8 s 8 -3.582 8 -8 s -3.582 -8 -8 -8 Z M 7 3.75 c 0 -0.413 0.338 -0.75 0.75 -0.75 h 0.5 c 0.412 0 0.75 0.337 0.75 0.75 v 0.5 c 0 0.412 -0.338 0.75 -0.75 0.75 h -0.5 c -0.412 0 -0.75 -0.338 -0.75 -0.75 v -0.5 Z M 10 13 h -4 v -1 h 1 v -4 h -1 v -1 h 3 v 5 h 1 v 1 Z" /></symbol>
<symbol id="close" viewBox="0 0 16 16"><path id="path4" d="M 8 0 C 3.582 0 0 3.582 0 8 s 3.582 8 8 8 s 8 -3.582 8 -8 s -3.582 -8 -8 -8 Z m 4 10.5 L 10.5 12 L 8 9.5 L 5.5 12 L 4 10.5 L 6.5 8 L 4 5.5 L 5.5 4 L 8 6.5 L 10.5 4 L 12 5.5 L 9.5 8 l 2.5 2.5 Z" /><path id="path3015" style="fill:#ffffff;fill-opacity:1;stroke:none" d="M 4.74168 11.257 L 4.01398 10.527 L 5.26802 9.27435 L 6.52207 8.02168 L 5.26756 6.76587 L 4.01305 5.51006 L 4.7593 4.76612 L 5.50555 4.02218 L 6.75956 5.27481 L 8.01356 6.52744 L 9.26794 5.27443 L 10.5223 4.02142 L 11.2505 4.74955 L 11.9786 5.47767 L 10.7256 6.73206 L 9.47256 7.98644 L 10.7256 9.24083 L 11.9786 10.4952 L 11.2328 11.241 L 10.4871 11.9868 L 9.23404 10.7323 L 7.981 9.47793 L 6.72519 10.7324 L 5.46938 11.9869 L 4.74168 11.257 Z" /></symbol>
<symbol id="flag" viewBox="0 0 16 16"><path d="M 0 0 h 2 v 16 h -2 v -16 Z" /><path d="M 3 1 v 8 h 12.5 l -4 -4 l 4 -4 Z" /></symbol>
<symbol id="hubpages-h" viewBox="0 0 16 16"><path d="M 13.757 6.636 c -0.448 0.448 -0.96 0.832 -1.44 1.152 V 0.11 c 0 -0.352 -2.078 0.224 -2.205 0.544 v 8.253 c -1.343 0.48 -2.814 0.704 -4.35 0.672 V 1.933 c 0 -0.352 -2.078 0.223 -2.206 0.543 V 9.42 c -0.575 -0.065 -1.183 -0.193 -1.79 -0.32 c -0.416 -0.097 -0.544 1.375 0 1.503 c 0.64 0.128 1.215 0.256 1.79 0.32 v 4.542 c 0 0.384 2.207 -0.256 2.207 -0.576 v -3.743 c 1.663 0.032 3.1 -0.192 4.35 -0.576 v 5.31 c 0 0.385 2.205 -0.255 2.205 -0.575 v -5.79 c 0.8 -0.544 1.503 -1.184 2.046 -1.92 c 0.192 -0.287 -0.35 -1.215 -0.607 -0.96 Z" /></symbol>
<symbol id="quotes-left" viewBox="0 0 16 16"><path d="M 3.516 7 c 1.933 0 3.5 1.567 3.5 3.5 s -1.567 3.5 -3.5 3.5 s -3.5 -1.567 -3.5 -3.5 l -0.016 -0.5 c 0 -3.866 3.134 -7 7 -7 v 2 c -1.336 0 -2.591 0.52 -3.536 1.464 c -0.182 0.182 -0.348 0.375 -0.497 0.578 c 0.179 -0.028 0.362 -0.043 0.548 -0.043 Z M 12.516 7 c 1.933 0 3.5 1.567 3.5 3.5 s -1.567 3.5 -3.5 3.5 s -3.5 -1.567 -3.5 -3.5 l -0.016 -0.5 c 0 -3.866 3.134 -7 7 -7 v 2 c -1.336 0 -2.591 0.52 -3.536 1.464 c -0.182 0.182 -0.348 0.375 -0.497 0.578 c 0.179 -0.028 0.362 -0.043 0.549 -0.043 Z" /></symbol>
<symbol id="new-tab" viewBox="0 0 16 16"><path d="M 11 13 h -8 v -8 h 4.5 l 2 -2 h -8.5 v 12 h 12 v -8.5 l -2 2 v 4.5 Z" /><path d="M 16 0 h -6.5 l 2.5 2.5 l -7.5 7.5 l 1.5 1.5 l 7.5 -7.5 l 2.5 2.5 v -6.5 Z" /></symbol>
<symbol id="amazon" viewBox="0 0 16 16"><path d="M 14.463 13.831 c -1.753 1.294 -4.291 1.981 -6.478 1.981 c -3.066 0 -5.825 -1.131 -7.912 -3.019 c -0.163 -0.147 -0.019 -0.35 0.178 -0.234 c 2.253 1.313 5.041 2.1 7.919 2.1 c 1.941 0 4.075 -0.403 6.041 -1.238 c 0.294 -0.125 0.544 0.197 0.253 0.409 Z" /><path d="M 15.191 13 c -0.225 -0.287 -1.481 -0.137 -2.047 -0.069 c -0.172 0.019 -0.197 -0.128 -0.044 -0.238 c 1.003 -0.703 2.647 -0.5 2.838 -0.266 c 0.194 0.238 -0.05 1.884 -0.991 2.672 c -0.144 0.122 -0.281 0.056 -0.219 -0.103 c 0.216 -0.528 0.688 -1.709 0.463 -1.997 Z" /><path d="M 11.053 11.838 l 0.003 0.003 c 0.387 -0.341 1.084 -0.95 1.478 -1.278 c 0.156 -0.125 0.128 -0.334 0.006 -0.509 c -0.353 -0.488 -0.728 -0.884 -0.728 -1.784 v -3 c 0 -1.272 0.088 -2.438 -0.847 -3.313 c -0.738 -0.706 -1.963 -0.956 -2.9 -0.956 c -1.831 0 -3.875 0.684 -4.303 2.947 c -0.047 0.241 0.131 0.369 0.287 0.403 l 1.866 0.203 c 0.175 -0.009 0.3 -0.181 0.334 -0.356 c 0.159 -0.778 0.813 -1.156 1.547 -1.156 c 0.397 0 0.847 0.144 1.081 0.5 c 0.269 0.397 0.234 0.938 0.234 1.397 v 0.25 c -1.116 0.125 -2.575 0.206 -3.619 0.666 c -1.206 0.522 -2.053 1.584 -2.053 3.147 c 0 2 1.259 3 2.881 3 c 1.369 0 2.116 -0.322 3.172 -1.403 c 0.35 0.506 0.463 0.753 1.103 1.284 c 0.147 0.078 0.328 0.072 0.456 -0.044 Z M 9.113 7.144 c 0 0.75 0.019 1.375 -0.359 2.041 c -0.306 0.544 -0.791 0.875 -1.331 0.875 c -0.737 0 -1.169 -0.563 -1.169 -1.394 c 0 -1.641 1.472 -1.938 2.863 -1.938 v 0.416 Z" /></symbol>
<symbol id="disclaimer" viewBox="0 0 96 96">
	<circle fill="white" stroke="#4b4949" stroke-width="6" cx="50" cy="50" r="40" />
 	<line stroke="#4b4949" stroke-width="6" x1="26" y1="50" x2="74" y2="50" />
</symbol>
<symbol id="trash" viewBox="0 0 16 16"><path d="M 2 5 v 10 c 0 0.55 0.45 1 1 1 h 9 c 0.55 0 1 -0.45 1 -1 v -10 h -11 Z M 5 14 h -1 v -7 h 1 v 7 Z M 7 14 h -1 v -7 h 1 v 7 Z M 9 14 h -1 v -7 h 1 v 7 Z M 11 14 h -1 v -7 h 1 v 7 Z" /><path d="M 13.25 2 h -3.25 v -1.25 c 0 -0.412 -0.338 -0.75 -0.75 -0.75 h -3.5 c -0.412 0 -0.75 0.338 -0.75 0.75 v 1.25 h -3.25 c -0.413 0 -0.75 0.337 -0.75 0.75 v 1.25 h 13 v -1.25 c 0 -0.413 -0.338 -0.75 -0.75 -0.75 Z M 9 2 h -3 v -0.987 h 3 v 0.987 Z" /></symbol>
<symbol id="hubpages-logo" viewBox="0 0 260 64"><path d="M 252.8 10.2 c -0.1 -0.1 -0.3 -0.2 -0.5 -0.3 c 0.5 0 0.9 -0.2 1.2 -0.5 c 0.3 -0.3 0.5 -0.7 0.5 -1.1 c 0 -0.3 -0.1 -0.6 -0.3 -0.9 c -0.2 -0.3 -0.4 -0.5 -0.7 -0.6 c -0.3 -0.1 -0.8 -0.2 -1.5 -0.2 h -2 v 5.9 h 0.9 V 10 h 0.6 c 0.3 0 0.6 0.1 0.8 0.2 c 0.2 0.2 0.6 0.6 1 1.4 l 0.5 0.9 h 1.2 l -0.7 -1.2 c -0.5 -0.5 -0.8 -0.9 -1 -1.1 Z m -1.3 -1 h -1.1 V 7.4 h 1.1 c 0.5 0 0.8 0 1 0.1 c 0.2 0.1 0.3 0.2 0.4 0.3 c 0.1 0.1 0.1 0.3 0.1 0.5 c 0 0.3 -0.1 0.5 -0.3 0.6 c -0.3 0.2 -0.6 0.3 -1.2 0.3 Z" /><path d="M 256.5 6.7 c -0.5 -0.9 -1.2 -1.5 -2 -2 c -0.9 -0.5 -1.8 -0.7 -2.7 -0.7 c -0.9 0 -1.8 0.2 -2.7 0.7 c -0.9 0.5 -1.6 1.1 -2 2 c -0.5 0.9 -0.7 1.8 -0.7 2.7 c 0 0.9 0.2 1.8 0.7 2.7 c 0.5 0.9 1.2 1.5 2 2 c 0.9 0.5 1.8 0.7 2.7 0.7 c 0.9 0 1.8 -0.2 2.7 -0.7 c 0.9 -0.5 1.5 -1.2 2 -2 c 0.5 -0.9 0.7 -1.8 0.7 -2.7 c 0.1 -0.9 -0.2 -1.8 -0.7 -2.7 Z m -0.7 5 c -0.4 0.7 -1 1.3 -1.7 1.7 c -0.7 0.4 -1.5 0.6 -2.3 0.6 c -0.8 0 -1.5 -0.2 -2.3 -0.6 c -0.7 -0.4 -1.3 -1 -1.7 -1.7 c -0.4 -0.7 -0.6 -1.5 -0.6 -2.3 c 0 -0.8 0.2 -1.6 0.6 -2.3 c 0.4 -0.7 1 -1.3 1.7 -1.7 c 0.7 -0.4 1.5 -0.6 2.2 -0.6 c 0.8 0 1.5 0.2 2.2 0.6 c 0.7 0.4 1.3 1 1.7 1.7 c 0.4 0.7 0.6 1.5 0.6 2.3 c 0.2 0.9 0 1.6 -0.4 2.3 Z M 93.4 19.4 c -3.9 0 -8.1 3.1 -10.8 5.9 v -0.5 c 0 -11.7 1 -19.8 1 -24.4 c 0 -1.1 -6.8 0.6 -6.9 1.8 c 0 1.2 -0.7 9.3 -0.7 16.6 c 0 8.2 0.3 14.7 1 19.6 c 0 3.1 -3.4 7.9 -7.1 7.9 c 0 0 -1.6 -10.5 -1.1 -26.6 c 0 -1.1 -6.9 0.8 -6.9 1.8 c 0 0.6 0.1 4.9 0.2 8.8 c 0 9.8 -3.9 17 -7.5 17 c -2.2 0 -4.5 -2.9 -4.5 -9.8 c 0 -8.7 2.5 -13.9 2.5 -16.2 c 0 -0.9 -1.5 -1.6 -5.9 -1.6 c -0.3 0 -0.7 0.3 -1 1 v 0.1 c -2.5 4.5 -5.8 7.6 -9.6 9.7 V 5 c 0 -1.1 -6.4 0.7 -6.8 1.7 v 26.4 c -4.3 1.1 -8.8 1.4 -13.3 1.2 V 10.7 c 0 -1.1 -6.4 0.7 -6.8 1.7 v 21.3 c -1.9 -0.3 -3.7 -0.6 -5.5 -1 c -1.2 -0.3 -1.7 4.2 0 4.6 c 1.8 0.5 3.7 0.9 5.5 1.2 v 13.7 c 0 1.1 6.8 -0.8 6.8 -1.8 V 39.3 c 4.6 0.3 9.2 0 13.3 -1 v 15 c 0 1.1 6.8 -0.8 6.8 -1.8 V 35.8 c 2.9 -1.5 5.4 -3.5 7.4 -6.1 c -0.2 2.2 -0.4 4.8 -0.4 7.8 c 0 7.8 4.6 15.3 10.1 15.3 c 3.9 0 7.5 -3.6 9.7 -8.7 c 1.5 6.9 4.7 8 7.2 8 c 3.9 0 6.6 -3.6 8.1 -7.3 c 1.8 5.1 4.9 7.3 10 7.3 c 10.8 0 14.9 -9.8 14.9 -18.5 c 0.4 -8.9 -4.2 -14.2 -9.7 -14.2 Z m -4.8 26.9 c -1.4 0 -4.9 -0.6 -5.8 -15.2 c 0.9 -0.9 5.4 -6 10 -6 c 1.1 0 4.2 1.5 4.3 8.4 c 0 9.5 -3.1 12.8 -8.5 12.8 Z m 147 -27.8 c -4.3 17.8 -11.3 27.6 -19 27.6 c -2.5 0 -5.4 -1.2 -7.1 -3.7 c 7.6 -3.7 15.6 -8.2 15.6 -14.3 c 0 -3.2 -4 -8.8 -10.5 -8.8 c -3.6 0 -13.2 4.8 -13.2 17.2 c 0 1.3 0.2 2.5 0.4 3.6 c -2.3 1.3 -4.5 2.6 -6.3 4 c 0 -0.1 0 -0.1 -0.1 -0.1 c -0.6 -6.8 -0.3 -8.1 0.7 -18.7 v -0.4 c 0 -0.2 0 -0.5 0.1 -0.7 c 0.1 -0.8 0.1 -1.6 0.2 -2.5 c 0.1 -1.1 -6.5 -0.9 -6.5 1.1 V 24 c -2.1 -2.7 -5.1 -4.5 -8.1 -4.5 c -4.1 0 -12.3 5.1 -12.3 17.4 c 0 4.7 -4.1 10.1 -6.3 10.1 c 0 0 -0.5 -6.2 0.6 -25.2 c 0.1 -1.1 -6.5 -0.9 -6.5 1.1 v 0.6 c -2.1 -2.4 -4.9 -4 -7.7 -4 c -4.1 0 -12.3 5.1 -12.3 17.4 c 0 7.8 4.6 15.3 10.1 15.3 c 3.7 0 7.5 -3.3 10 -8 c 0.1 5.9 2.8 8.2 5.7 8.2 c 2.9 0 5.9 -3.6 7.9 -7.5 c 1.8 4.3 5 7.4 8.5 7.4 c 3.7 0 7.4 -3.2 9.9 -7.8 c 0 1.7 0.1 3.5 0.2 5.5 c -2.1 2.7 -3.9 5.8 -3.9 8.2 c 0 4.1 1.3 6.2 4.7 6.2 c 3 0 5.7 -3.4 5.4 -13.1 c 0.6 -2 3.9 -3.9 8 -5.9 c 2.9 4.3 7.7 6.8 12.6 6.8 c 4.1 0 7.7 -1.5 11 -4.6 c 2.1 2.3 5.4 4.6 9.8 4.6 c 5.5 0 12.8 -3.2 12.8 -11.7 s -9.6 -16.5 -9.6 -20.7 l -4.8 -1.3 Z m -86.8 28 c -2.2 0 -4.5 -2.9 -4.5 -9.8 c 0 -8.8 3.5 -11.7 7.3 -11.7 c 2 0 5.2 3 5.8 3.6 v 2.1 c -0.6 8.9 -5.3 15.8 -8.6 15.8 Z m 32.1 0 c -2.2 0 -4.5 -2.9 -4.5 -9.8 c 0 -8.8 3.5 -11.7 7.3 -11.7 c 2.2 0 5.9 3.7 5.9 3.7 c 0 9.8 -5.1 17.8 -8.7 17.8 Z m 26.9 -10.2 c 0 -7.2 3.7 -11.4 6.9 -11.4 c 2.8 0 4.4 1.9 4.4 3.9 c 0 2.4 -5.3 5 -11.2 8 c -0.1 -0.1 -0.1 -0.3 -0.1 -0.5 Z m 29.5 10.4 c -2.9 0 -5.3 -1.1 -7 -2.4 c 3 -4 5.6 -9.6 7.7 -16.9 c 2.5 4.1 5.9 7.6 5.9 12.4 c 0 4.5 -4.1 6.9 -6.6 6.9 Z m -117.1 -42 c -12.7 0 -19.2 12.4 -19.4 13.6 c 0 0 1.9 2.5 3.2 2.2 c 0.7 -0.1 2.1 -2.5 4.5 -4.9 l 0.1 36 c 0 1.1 6.6 -0.8 6.6 -1.7 V 39.2 c 1.8 1.2 4.2 2.4 6.8 2.4 c 9.6 0 14.9 -9.1 14.9 -17.9 c -0.1 -13.6 -8.4 -19 -16.7 -19 Z m 1.7 31.2 c -2.4 0 -4.9 -0.8 -6.8 -1.6 V 11.2 c 1.4 -0.5 2.9 -0.8 4.6 -0.8 c 5.6 0 10.8 4 10.8 14.5 c 0 6.3 -3.2 11 -8.6 11 Z" /></symbol>
<symbol id="search-magnify" viewBox="0 0 36 36"><path d="M 35.525 31.228 l -8.88 -8.882 c 1.444 -2.238 2.298 -4.895 2.298 -7.752 C 28.943 6.684 22.505 0.25 14.597 0.25 C 6.687 0.25 0.254 6.686 0.254 14.595 c 0 7.91 6.433 14.344 14.343 14.344 c 2.856 0 5.513 -0.85 7.752 -2.294 l 8.88 8.88 c 0.294 0.297 0.78 0.297 1.075 0 l 3.22 -3.22 c 0.3 -0.296 0.3 -0.78 0 -1.076 Z M 4.81 14.593 c 0 -5.396 4.39 -9.788 9.788 -9.788 c 5.398 0 9.787 4.392 9.787 9.788 c 0 5.398 -4.39 9.79 -9.787 9.79 c -5.398 0 -9.788 -4.392 -9.788 -9.79 Z" /></symbol>
<symbol id="bell" viewBox="0 0 16 16"><path d="M 16 13 c -1.657 0 -3 -1.343 -3 -3 v -4.455 c 0 -2.199 -1.718 -4.033 -4 -4.454 v -1.091 h -2 v 1.091 c -2.282 0.421 -4 2.255 -4 4.454 v 4.455 c 0 1.657 -1.343 3 -3 3 v 1 h 6.712 c -0.081 0.178 -0.127 0.377 -0.127 0.586 c 0 0.781 0.633 1.414 1.414 1.414 s 1.414 -0.633 1.414 -1.414 c 0 -0.209 -0.045 -0.407 -0.127 -0.586 h 6.713 v -1 Z" /></symbol>
<symbol id="question" viewBox="0 0 16 16"><path d="M 9 12 c 0 0.552 -0.448 1 -1 1 s -1 -0.448 -1 -1 s 0.448 -1 1 -1 s 1 0.448 1 1 Z" /><path d="M 8 0 c -4.418 0 -8 3.582 -8 8 s 3.582 8 8 8 s 8 -3.582 8 -8 s -3.582 -8 -8 -8 Z M 8 14.5 c -3.59 0 -6.5 -2.91 -6.5 -6.5 s 2.91 -6.5 6.5 -6.5 s 6.5 2.91 6.5 6.5 s -2.91 6.5 -6.5 6.5 Z" /><path d="M 8 10.004 c -0.414 0 -0.75 -0.336 -0.75 -0.75 v -0.5 c 0 -0.525 0.203 -0.998 0.602 -1.404 c 0.295 -0.3 0.653 -0.525 0.999 -0.742 c 0.712 -0.447 1.024 -0.687 1.024 -1.107 c 0 -0.457 -0.264 -0.762 -0.485 -0.938 c -0.355 -0.282 -0.849 -0.437 -1.39 -0.437 c -0.821 0 -1.559 0.548 -1.796 1.333 c -0.12 0.397 -0.538 0.621 -0.934 0.502 s -0.621 -0.538 -0.502 -0.934 c 0.205 -0.68 0.631 -1.291 1.2 -1.721 c 0.589 -0.445 1.292 -0.68 2.031 -0.68 c 0.878 0 1.703 0.271 2.322 0.762 c 0.679 0.539 1.053 1.289 1.053 2.113 c 0 1.293 -0.998 1.92 -1.726 2.377 c -0.611 0.384 -0.899 0.596 -0.899 0.876 v 0.5 c 0 0.414 -0.336 0.75 -0.75 0.75 Z" /></symbol>
<symbol id="maven-key" viewBox="0 0 367 512"><path d="M 194.9 264.1 l 80.5 -80.5 l -91.8 -92 l -92 92 l 80.5 80.5 v 156.2 h 23 v -15.5 h 30.6 v -23.6 h -17.1 v -23.3 h 17.1 v -23.6 h -30.6 v -70.4 h -0.2 v 0.2 Z m -70.3 -80.3 l 59.4 -59.4 l 59.4 59.4 l -23.4 23.4 l -36 -36 l -36 36 l -23.4 -23.4 Z m 59.3 59.3 l -27.5 -27.5 l 27.5 -27.5 l 27.5 27.5 l -27.5 27.5 Z" /></symbol>
<symbol id="maven-channel" viewBox="0 0 288 60"><path id="path3" d="M 18.8 31.3 l 14.7 -14.7 L 16.8 0 L 0 16.7 l 14.7 14.7 v 28.4 h 4.2 V 57 h 5.5 v -4.2 h -3.1 v -4.2 h 3.1 v -4.2 h -5.5 L 18.8 31.3 L 18.8 31.3 L 18.8 31.3 Z M 6.1 16.7 L 16.8 5.9 l 10.7 10.7 l -4.2 4.2 l -6.5 -6.5 l -6.5 6.5 L 6.1 16.7 Z M 16.8 27.5 l -4.9 -5.1 l 4.9 -4.9 l 4.9 4.9 L 16.8 27.5 Z" /><path id="path7" d="M 55.4 34.4 l -8.1 17.8 h 2 l 2 -4.6 H 61 l 2 4.6 h 2.1 l -8.1 -17.8 H 55.4 Z M 52.3 45.8 l 4 -9 l 4 9 H 52.3 Z" /><polygon id="polygon9" points="82.3,42.1 77.7,34.5 73.4,34.5 73.4,52.3 77.2,52.3 77.2,40.8 82.1,48.3 82.3,48.3 87.3,40.7 87.3,52.3 91.1,52.3 91.1,34.5 86.9,34.5" /><path id="path11" d="M 99.9 34.4 l -7.4 17.8 h 3.9 l 1.5 -3.9 h 7.5 l 1.5 3.9 h 4 l -7.6 -17.8 H 99.9 Z M 99.4 44.8 l 2.4 -5.7 l 2.4 5.7 H 99.4 Z" /><polygon id="polygon13" points="118.1,47 113.5,34.5 109.2,34.5 116.4,52.4 119.9,52.4 127,34.5 122.8,34.5" /><polygon id="polygon15" points="132.1,44.9 140.5,44.9 140.5,41.6 132.1,41.6 132.1,38 141.5,38 141.5,34.5 128.2,34.5 128.1,34.5 128.1,52.2 141.6,52.2 141.6,48.7 132.1,48.7" /><polygon id="polygon17" points="155.9,45.4 147.7,34.5 144.1,34.5 144,34.5 144,52.3 147.9,52.3 147.9,41 156.5,52.3 159.7,52.3 159.7,34.5 155.9,34.5" /><path id="path19" d="M 177.6 50.8 c -3.9 0 -6.8 -3.2 -6.8 -7.3 v -0.1 c 0 -4.1 3 -7.3 6.8 -7.3 c 2.4 0 4 1.1 5.5 2.5 l 1.3 -1.4 c -1.7 -1.5 -3.7 -2.8 -6.8 -2.8 c -5.2 0 -9 4.1 -9 9.1 s 3.8 9.1 8.9 9.1 c 3.3 0 5.2 -1.3 7.1 -3.2 l -1.3 -1.3 C 181.7 49.9 180.1 50.8 177.6 50.8 Z" /><polygon id="polygon21" points="199,42.4 188.8,42.4 188.8,34.5 186.8,34.5 186.8,52.3 188.8,52.3 188.8,44.3 199,44.3 199,52.3 200.9,52.3 200.9,34.5 199,34.5" /><path id="path23" d="M 211.1 34.4 L 203 52.3 h 2 l 2 -4.6 h 9.6 l 2 4.6 h 2.1 l -8.1 -17.8 H 211.1 Z M 208 45.8 l 4 -9 l 4 9 H 208 Z" /><polygon id="polygon25" points="236.1,48.7 224.9,34.5 223.1,34.5 223.1,52.3 225,52.3 225,37.8 236.5,52.3 238,52.3 238,34.5 236.1,34.5" /><polygon id="polygon27" points="254.9,48.7 243.7,34.5 241.9,34.5 241.9,52.3 243.8,52.3 243.8,37.8 255.3,52.3 256.8,52.3 256.8,34.5 254.9,34.5" /><polygon id="polygon29" points="262.8,44.1 272.4,44.1 272.4,42.3 262.8,42.3 262.8,36.3 273.6,36.3 273.6,34.5 260.7,34.5 260.7,52.1 273.7,52.1 273.7,50.2 262.8,50.2" /><polygon id="polygon31" points="278.1,50.4 278.1,34.5 276.1,34.5 276.1,52.3 288,52.3 288,50.4" /></symbol>
<symbol id="facebook" viewBox="0 0 16 16"><path d="M 9.5 3 h 2.5 v -3 h -2.5 c -1.93 0 -3.5 1.57 -3.5 3.5 v 1.5 h -2 v 3 h 2 v 8 h 3 v -8 h 2.5 l 0.5 -3 h -3 v -1.5 c 0 -0.271 0.229 -0.5 0.5 -0.5 Z" /></symbol>
<symbol id="pinterest" viewBox="0 0 16 16"><path d="M 8 1.069 c -3.828 0 -6.931 3.103 -6.931 6.931 c 0 2.938 1.828 5.444 4.406 6.453 c -0.059 -0.547 -0.116 -1.391 0.025 -1.988 c 0.125 -0.541 0.813 -3.444 0.813 -3.444 s -0.206 -0.416 -0.206 -1.028 c 0 -0.963 0.559 -1.684 1.253 -1.684 c 0.591 0 0.878 0.444 0.878 0.975 c 0 0.594 -0.378 1.484 -0.575 2.306 c -0.166 0.691 0.344 1.253 1.025 1.253 c 1.231 0 2.178 -1.3 2.178 -3.175 c 0 -1.659 -1.194 -2.819 -2.894 -2.819 c -1.972 0 -3.128 1.478 -3.128 3.009 c 0 0.597 0.228 1.234 0.516 1.581 c 0.056 0.069 0.066 0.128 0.047 0.2 c -0.053 0.219 -0.169 0.691 -0.194 0.787 c -0.031 0.128 -0.1 0.153 -0.231 0.094 c -0.866 -0.403 -1.406 -1.669 -1.406 -2.684 c 0 -2.188 1.587 -4.194 4.578 -4.194 c 2.403 0 4.272 1.712 4.272 4.003 c 0 2.388 -1.506 4.313 -3.597 4.313 c -0.703 0 -1.362 -0.366 -1.588 -0.797 c 0 0 -0.347 1.322 -0.431 1.647 c -0.156 0.603 -0.578 1.356 -0.862 1.816 c 0.65 0.2 1.337 0.309 2.053 0.309 c 3.828 0 6.931 -3.103 6.931 -6.931 c 0 -3.831 -3.103 -6.934 -6.931 -6.934 Z" /></symbol>
<symbol id="envelop" viewBox="0 0 16 16"><path d="M 15 2 h -14 c -0.55 0 -1 0.45 -1 1 v 10 c 0 0.55 0.45 1 1 1 h 14 c 0.55 0 1 -0.45 1 -1 v -10 c 0 -0.55 -0.45 -1 -1 -1 Z M 5.831 9.773 l -3 2.182 c -0.1 0.073 -0.216 0.108 -0.33 0.108 c -0.174 0 -0.345 -0.08 -0.455 -0.232 c -0.183 -0.251 -0.127 -0.603 0.124 -0.786 l 3 -2.182 c 0.251 -0.183 0.603 -0.127 0.786 0.124 s 0.127 0.603 -0.124 0.786 Z M 13.955 11.831 c -0.11 0.151 -0.282 0.232 -0.455 0.232 c -0.115 0 -0.23 -0.035 -0.33 -0.108 l -3 -2.182 c -0.251 -0.183 -0.307 -0.534 -0.124 -0.786 s 0.535 -0.307 0.786 -0.124 l 3 2.182 c 0.251 0.183 0.307 0.535 0.124 0.786 Z M 13.831 4.955 l -5.5 4 c -0.099 0.072 -0.215 0.108 -0.331 0.108 s -0.232 -0.036 -0.331 -0.108 l -5.5 -4 c -0.251 -0.183 -0.307 -0.534 -0.124 -0.786 s 0.535 -0.307 0.786 -0.124 l 5.169 3.759 l 5.169 -3.759 c 0.251 -0.183 0.603 -0.127 0.786 0.124 s 0.127 0.603 -0.124 0.786 Z" /></symbol>
<symbol id="bubble-lines" viewBox="0 0 16 16"><path d="M 14.5 1 h -13 c -0.825 0 -1.5 0.675 -1.5 1.5 v 8 c 0 0.825 0.675 1.5 1.5 1.5 h 2.5 v 4 l 4.8 -4 h 5.7 c 0.825 0 1.5 -0.675 1.5 -1.5 v -8 c 0 -0.825 -0.675 -1.5 -1.5 -1.5 Z M 7 9 h -4 v -1 h 4 v 1 Z M 11 7 h -8 v -1 h 8 v 1 Z M 13 5 h -10 v -1 h 10 v 1 Z" /></symbol>
</svg>